<?xml version="1.0" encoding="UTF-8" standalone="no"?>
<svg
   width="150"
   height="150"
   viewBox="0 0 150 150"
   version="1.1"
   id="svg2"
   sodipodi:docname="kleenestar.svg"
   inkscape:version="1.4 (86a8ad7, 2024-10-11)"
   inkscape:export-filename="kleenestar.png"
   inkscape:export-xdpi="96"
   inkscape:export-ydpi="96"
   xmlns:inkscape="http://www.inkscape.org/namespaces/inkscape"
   xmlns:sodipodi="http://sodipodi.sourceforge.net/DTD/sodipodi-0.dtd"
   xmlns="http://www.w3.org/2000/svg"
   xmlns:svg="http://www.w3.org/2000/svg">
  <defs
     id="defs2" />
  <sodipodi:namedview
     id="namedview2"
     pagecolor="#ffffff"
     bordercolor="#000000"
     borderopacity="0.25"
     inkscape:showpageshadow="2"
     inkscape:pageopacity="0.0"
     inkscape:pagecheckerboard="0"
     inkscape:deskcolor="#d1d1d1"
     inkscape:zoom="0.5"
     inkscape:cx="-218"
     inkscape:cy="-221"
     inkscape:window-width="1920"
     inkscape:window-height="1137"
     inkscape:window-x="-8"
     inkscape:window-y="-8"
     inkscape:window-maximized="1"
     inkscape:current-layer="svg2"
     showgrid="true">
    <inkscape:grid
       id="grid1"
       units="px"
       originx="12"
       originy="12"
       spacingx="1"
       spacingy="1"
       empcolor="#0099e5"
       empopacity="0.30196078"
       color="#0099e5"
       opacity="0.14901961"
       empspacing="1"
       enabled="true"
       visible="true"
       dotted="false" />
  </sodipodi:namedview>
  <rect
     style="fill:#ff6600;stroke-width:0;fill-opacity:1;stroke:none"
     id="rect5"
     width="150"
     height="150"
     x="0"
     y="0"
     inkscape:label="background" />
  <path
     id="path5"
     style="font-size:60px;font-family:'Times New Roman', Times, serif;text-anchor:middle;fill:#ffffff;fill-opacity:1;stroke:none;stroke-width:5.27903"
     d="m 75.697266,11 c -3.722448,0 -6.875905,1.388161 -9.460938,4.164063 -2.481632,2.775905 -3.722656,6.83741 -3.722656,12.183593 0,3.804018 1.757791,10.742856 5.273437,20.81836 2.284027,6.434476 3.682618,12.913979 4.214844,19.435546 A 8,8 0 0 1 75,67 a 8,8 0 0 1 3.640625,0.878906 c 0.707803,-6.601445 2.303476,-13.732195 4.8125,-21.408203 2.791836,-8.327711 4.1875,-14.805135 4.1875,-19.431641 0,-5.140561 -1.188177,-9.099094 -3.566406,-11.874999 C 81.695986,12.388161 78.902706,11 75.697266,11 Z M 29.632812,37.833984 c -3.102038,0 -5.842472,1.182217 -8.220703,3.546875 C 19.13728,43.642706 18,46.161595 18,48.9375 c 0,4.832129 2.327409,8.945119 6.980469,12.337891 2.998642,2.159034 10.855853,4.574954 23.574219,7.248047 7.071814,1.406291 13.229925,3.331469 18.496093,5.763671 a 8,8 0 0 1 3.560547,-5.96875 C 65.241331,64.803301 59.957049,60.100918 54.759766,54.181641 49.072691,47.60172 44.316082,43.231304 40.490234,41.072266 36.664382,38.913231 33.045058,37.833984 29.632812,37.833984 Z m 90.269528,0.308594 c -3.51564,0 -6.98033,0.976276 -10.39257,2.929688 -3.41225,1.953415 -8.63278,6.991193 -15.664067,15.113281 -4.228774,4.777997 -8.956572,8.880478 -14.167969,12.326172 a 8,8 0 0 1 3.296875,5.886719 c 5.014959,-2.012623 11.079682,-3.823941 18.314451,-5.41211 13.64897,-2.981529 22.17955,-5.963787 25.5918,-8.945312 C 130.29311,57.059491 132,53.667299 132,49.863281 c 0,-3.187148 -1.18817,-5.911982 -3.56641,-8.173828 -2.27482,-2.364659 -5.119,-3.546875 -8.53125,-3.546875 z M 67.042969,75.597656 c -5.620803,2.264816 -11.364165,4.035451 -17.246094,5.261719 -9.92653,2.056223 -16.28629,3.701807 -19.078125,4.935547 -4.239456,1.850599 -7.445758,4.215033 -9.617188,7.09375 C 19.033537,95.664575 18,98.337925 18,100.9082 c 0,2.87871 1.241023,5.50058 3.722656,7.86524 2.481632,2.36467 5.480447,3.54687 8.996094,3.54687 2.895237,0 5.686564,-0.82181 8.375,-2.46679 3.82585,-2.26186 9.512249,-7.60855 17.060547,-16.039067 4.119998,-4.468888 8.91084,-8.537935 14.302734,-12.248047 a 8,8 0 0 1 -3.414062,-5.96875 z m 15.904297,0.138672 a 8,8 0 0 1 -3.146485,5.636719 c 5.713382,4.142944 10.576486,8.538972 14.509766,13.212891 6.410883,7.505222 11.476763,12.337052 15.199223,14.496092 3.82584,2.15904 7.29053,3.23828 10.39257,3.23828 3.10204,0 5.78962,-1.13072 8.06446,-3.39258 2.37822,-2.26185 3.56836,-4.9352 3.56836,-8.01953 0,-4.009635 -1.96528,-7.710744 -5.89454,-11.103512 -3.82583,-3.392775 -11.99429,-6.220579 -24.50585,-8.482422 -7.048734,-1.308259 -13.103499,-3.173532 -18.187504,-5.585938 z m -4.361328,6.398438 A 8,8 0 0 1 75,83 8,8 0 0 1 71.894531,82.359375 c -0.455074,4.092653 -0.939951,7.47101 -1.470703,9.757813 -0.620411,2.570282 -2.119818,7.352587 -4.498047,14.343752 -2.378231,6.88837 -3.566406,12.79945 -3.566406,17.73437 0,4.72933 1.086385,8.17299 3.257813,10.33203 C 68.71923,137.50886 72.181964,139 76.007812,139 c 2.791837,0 5.428524,-1.38816 7.910157,-4.16406 2.481632,-2.87872 3.722656,-6.37388 3.722656,-10.48633 0,-4.42088 -1.861532,-12.69835 -5.583984,-24.830079 -1.959196,-6.215129 -3.110864,-12.006602 -3.470703,-17.384765 z"
     inkscape:label="kleenestar" />
</svg>
